<svg id="Layer_1" data-name="Layer 1" xmlns="http://www.w3.org/2000/svg" viewBox="0 0 128.5 20"><defs><style>.cls-1{fill:#fff;}.cls-2{fill:#d4d500;}.cls-3{fill:none;}</style></defs><path class="cls-1" d="M16.83,19l.1-12.64h-.08L12.31,19h-3L4.94,6.35H4.87L5,19H1V1.13H7l4,11.45h.1L14.85,1.13h6.09V19Z"/><path class="cls-1" d="M33,11.3V19H28.94V11.31L22.37,1.13H27.1L31.05,7.8l4-6.67,4.47.06Z"/><path class="cls-1" d="M49.25,4.5V19H45.43V4.5l-5,.06L40.3,1.13l14.12-.07L54.5,4.5Z"/><path class="cls-1" d="M56.83,19V1.23h3.89V19Z"/><path class="cls-1" d="M80.35,17.66a14.35,14.35,0,0,1-3.12,1.06,16.84,16.84,0,0,1-3.88.42,11.86,11.86,0,0,1-4-.66,9.26,9.26,0,0,1-3.15-1.84,8.21,8.21,0,0,1-2.06-2.85,8.91,8.91,0,0,1-.75-3.7,8.91,8.91,0,0,1,.76-3.74A8.37,8.37,0,0,1,66.22,3.5a9.53,9.53,0,0,1,3.13-1.81,11.54,11.54,0,0,1,3.87-.63,12.62,12.62,0,0,1,4,.62,8.51,8.51,0,0,1,3,1.66l-2.77,3a4.66,4.66,0,0,0-1.69-1.15,6.12,6.12,0,0,0-2.39-.45,5.56,5.56,0,0,0-2.13.4,5.28,5.28,0,0,0-1.69,1.11A5,5,0,0,0,68.44,8,5.62,5.62,0,0,0,68,10.1a6.24,6.24,0,0,0,.36,2.18A4.72,4.72,0,0,0,69.46,14a4.77,4.77,0,0,0,1.75,1.12,6.6,6.6,0,0,0,2.37.4A9.61,9.61,0,0,0,75,15.39,6.07,6.07,0,0,0,76.32,15V11.91H73.54V8.56h6.81Z"/><path class="cls-1" d="M107.88,4.57,107.94,19h-4.29l-.06-14.42h-5l.06-3.5,14,.06-.06,3.5Z"/><path class="cls-1" d="M114.91,19V1.06h12V4.74H119.1V8.1h7.38v3.47H119.1V15.3h8.26V19Z"/><polygon class="cls-2" points="89.61 1.06 93.04 1.06 100.75 19.01 96.22 19.01 91.42 6.66 86.31 19.01 82.09 19.01 89.61 1.06"/><rect class="cls-3" width="128.5" height="20"/></svg>